# AST/ASF file generated using VICON BodyLanguage
# -----------------------------------------------
:version 1.10
:name VICON
:units
  mass 1.0
  length 0.45
  angle deg
:documentation
   .ast/.asf automatically generated from VICON data using
   VICON BodyBuilder and BodyLanguage model FoxedUp or BRILLIANT.MOD
:root
   order TX TY TZ RX RY RZ
   axis XYZ
   position 0 0 0  
   orientation 0 0 0 
:bonedata
  begin
     id 1 
     name lhipjoint
     direction 0.707368 -0.647095 0.284426 
     length 2.60678 
     axis 0 0 0  XYZ
  end
  begin
     id 2 
     name lfemur
     direction 0.34202 -0.939693 0  
     length 6.63812  
     axis 0 0 20  XYZ
    dof rx ry rz
    limits (-160.0 20.0)
           (-70.0 70.0)
           (-60.0 70.0)
  end
  begin
     id 3 
     name ltibia
     direction 0.34202 -0.939693 0   
     length 7.51178   
     axis 0 0 20   XYZ
    dof rx
    limits (-10.0 170.0)
  end
  begin
     id 4 
     name lfoot
     direction 0.121251 -0.333133 0.935051   
     length 1.83716   
     axis -90 7.62852e-016 20   XYZ
    dof rx rz
    limits (-45.0 90.0)
           (-70.0 20.0)
  end
  begin
     id 5 
     name ltoes
     direction 1.53611e-011 -4.21962e-011 1   
     length 0.916133   
     axis -90 7.62852e-016 20   XYZ
    dof rx
    limits (-90.0 20.0)
  end
  begin
     id 6 
     name rhipjoint
     direction -0.692419 -0.660507 0.290321   
     length 2.55385  
     axis 0 0 0  XYZ 
  end
  begin
     id 7 
     name rfemur
     direction -0.34202 -0.939693 0   
     length 7.29079   
     axis 0 0 -20   XYZ
    dof rx ry rz
    limits (-160.0 20.0)
           (-70.0 70.0)
           (-70.0 60.0)
  end
  begin
     id 8 
     name rtibia
     direction -0.34202 -0.939693 0   
     length 7.47143   
     axis 0 0 -20   XYZ
    dof rx
    limits (-10.0 170.0)
 end
 begin
     id 9 
     name rfoot
     direction -0.119907 -0.329441 0.936532   
     length 1.79439  
     axis -90 -7.62852e-016 -20   XYZ
    dof rx rz
    limits (-45.0 90.0)
           (-20.0 70.0)
  end
  begin
     id 10 
     name rtoes
     direction -1.53571e-011 -4.21961e-011 1   
     length 0.896039   
     axis -90 -7.62852e-016 -20   XYZ
    dof rx
    limits (-90.0 20.0)
  end
  begin
     id 11 
     name lowerback
     direction 0.0367721 0.992912 -0.113016   
     length 1.73542   
     axis 0 0 0   XYZ
    dof rx ry rz
    limits (-20.0 45.0)
           (-30.0 30.0)
           (-30.0 30.0)
  end
  begin
     id 12 
     name upperback
     direction -0.000314626 0.990678 0.136227   
     length 1.7514   
     axis 0 0 0   XYZ
    dof rx ry rz
    limits (-20.0 45.0)
           (-30.0 30.0)
           (-30.0 30.0)
  end
  begin
     id 13 
     name thorax
     direction -0.0226159 0.981151 0.191917   
     length 1.71471   
     axis 0 0 0   XYZ
    dof rx ry rz
    limits (-20.0 45.0)
           (-30.0 30.0)
           (-30.0 30.0)
  end
  begin
     id 14 
     name lowerneck
     direction 0.0219333 0.998071 0.0580739   
     length 1.65882   
     axis 0 0 0   XYZ
    dof rx ry rz
    limits (-20.0 45.0)
           (-30.0 30.0)
           (-30.0 30.0)
  end
  begin
     id 15 
     name upperneck
     direction 0.0384529 0.980058 -0.194957   
     length 1.6612   
     axis 0 0 0   XYZ
    dof rx ry rz
    limits (-20.0 45.0)
           (-30.0 30.0)
           (-30.0 30.0)
  end
  begin
     id 16
     name head
     direction 0.00592123 0.997421 -0.0715234  
     length 1.68077  
     axis 0 0 0   XYZ
    dof rx ry rz
    limits (-20.0 45.0)
           (-30.0 30.0)
           (-30.0 30.0)
  end
  begin
     id 17 
     name lclavicle
     direction 0.904803 0.417826 0.0821728  
     length 3.42227  
     axis 0 0 0   XYZ
    dof ry rz
    limits (-20.0 10.0)
           (0.0 20.0)
  end
  begin
     id 18 
     name lhumerus
     direction 1 -4.48965e-011 -2.68786e-027   
     length 5.11878   
     axis -180 -30 -90   XYZ
    dof rx ry rz
    limits (-60.0 90.0)
           (-90.0 90.0)
           (-90.0 90.0)
  end
  begin
     id 19
     name lradius
     direction 1 -4.48965e-011 2.61168e-028   
     length 3.59971   
     axis -180 -30 -90   XYZ
    dof rx
    limits (-10.0 170.0)
  end
  begin
     id 20
     name lwrist
     direction 1 -4.48965e-011 1.58672e-027   
     length 1.79985   
     axis -1.65735e-015 90 90   XYZ
    dof ry
    limits (-180.0 0.0)
 end
  begin
     id 21 
     name lhand
     direction 1 -4.48942e-011 3.17344e-027   
     length 0.62877   
     axis -2.02492e-015 90 90   XYZ
    dof rx rz
    limits (-90.0 90.0)
           (-45.0 45.0)
  end
  begin
     id 22 
     name lfingers
     direction 1 -4.49011e-011 6.34687e-027   
     length 0.506931   
     axis -4.04985e-015 90 90   XYZ
    dof rx
    limits (0.0 90.0)
  end
  begin
     id 23
     name lthumb
     direction 0.707107 -6.34982e-011 0.707107   
     length 0.727854   
     axis -90 45 2.85299e-015   XYZ
    dof rx rz
    limits (-45.0 45.0)
           (-45.0 45.0)
  end
  begin
     id 24 
     name rclavicle
     direction -0.945647 0.32488 0.0143075   
     length 3.52737  
     axis 0 0 0   XYZ 
    dof ry rz
    limits (-10.0 20.0)
           (-20.0 0.0)
  end
  begin
     id 25 
     name rhumerus
     direction -1 -4.48962e-011 1.92182e-027  
     length 5.4902   
     axis -180 30 90   XYZ
    dof rx ry rz
    limits (-90.0 60.0)
           (-90.0 90.0)
           (-90.0 90.0)
  end
  begin
     id 26 
     name rradius
     direction -1 -4.48967e-011 -5.97193e-028   
     length 3.20659   
     axis -180 30 90   XYZ
    dof rx
    limits (-10.0 170.0)
  end
  begin
     id 27 
     name rwrist
     direction -1 -4.48964e-011 1.58672e-027   
     length 1.6033   
     axis -1.65735e-015 -90 -90   XYZ
    dof ry
    limits (-180.0 0.0)
  end
  begin
     id 28
     name rhand
     direction -1 -4.49006e-011 3.17344e-027   
     length 0.691885   
     axis -2.02492e-015 -90 -90   XYZ
    dof rx rz
    limits (-90.0 90.0)
           (-45.0 45.0)
  end
  begin
     id 29
     name rfingers
     direction -1 -4.48908e-011 6.34687e-027   
     length 0.557815   
     axis -4.04985e-015 -90 -90   XYZ
    dof rx
    limits (0.0 90.0)
  end
  begin
     id 30
     name rthumb
     direction -0.707107 -6.34999e-011 0.707107   
     length 0.800915   
     axis -90 -45 -2.85299e-015   XYZ
    dof rx rz
    limits (-45.0 45.0)
           (-45.0 45.0)
  end
:hierarchy
  begin
    root lhipjoint rhipjoint lowerback
    lhipjoint lfemur
    lfemur ltibia
    ltibia lfoot
    lfoot ltoes
    rhipjoint rfemur
    rfemur rtibia
    rtibia rfoot
    rfoot rtoes
    lowerback upperback
    upperback thorax
    thorax lowerneck lclavicle rclavicle
    lowerneck upperneck
    upperneck head
    lclavicle lhumerus
    lhumerus lradius
    lradius lwrist
    lwrist lhand lthumb
    lhand lfingers
    rclavicle rhumerus
    rhumerus rradius
    rradius rwrist
    rwrist rhand rthumb
    rhand rfingers
  end

#!OML:ASF I:\Actors\actors\Patient Classification 1\Patient 1\Session 1\Subject1.ASF
:FULLY-SPECIFIED
:DEGREES
49
root -0.353555 17.4896 7.60385 8.8419 -2.85922 -8.08751
lowerback 0.908871 1.19832 4.90983
upperback -9.87149 2.06038 1.19732
thorax -10.9341 0.627897 -1.66208
lowerneck -0.141306 -12.6694 -12.1195
upperneck 11.1871 -18.8528 16.0939
head 6.09626 -9.09648 5.63663
rclavicle -5.1684e-015 3.18055e-015
rhumerus -42.5864 -8.33777 -84.0573
rradius 24.1784
rwrist 37.7917
rhand 6.54321 -32.8641
rfingers 7.12502
rthumb 31.8408 -60.1019
lclavicle -5.1684e-015 3.18055e-015
lhumerus -42.3929 16.644 77.1215
lradius 20.8327
lwrist -26.4339
lhand -17.5651 -7.49674
lfingers 7.12502
lthumb 8.69004 22.3044
rfemur -3.55996 24.4035 25.4899
rtibia 1.71718
rfoot -9.19234 -23.8362
rtoes 0.91159
lfemur 5.67967 -42.9045 -14.6797
ltibia -4.60692
lfoot -20.5524 51.6419
ltoes 11.7486
50
root -0.353813 17.4894 7.6017 8.84129 -2.86215 -8.09188
lowerback 0.943008 1.20007 4.91255
upperback -9.86307 2.06428 1.19021
thorax -10.9446 0.628961 -1.67244
lowerneck -0.14203 -12.6854 -12.1433
upperneck 11.0382 -18.876 16.2456
head 6.07147 -9.10593 5.68618
rclavicle 4.77083e-015 2.06736e-014
rhumerus -42.5787 -8.41151 -84.046
rradius 24.1592
rwrist 37.8165
rhand 6.54455 -32.9027
rfingers 7.12502
rthumb 31.8421 -60.1402
lclavicle 4.77083e-015 2.06736e-014
lhumerus -42.3951 16.5648 77.1847
lradius 20.8672
lwrist -26.3197
lhand -17.5897 -7.72473
lfingers 7.12502
lthumb 8.66628 22.0774
rfemur -3.57555 24.3828 25.4911
rtibia 1.7245
rfoot -9.17651 -23.8243
rtoes 0.788979
lfemur 5.66744 -42.9432 -14.6665
ltibia -4.60029
lfoot -20.671 51.6736
ltoes 11.888
51
root -0.353753 17.4892 7.60002 8.84601 -2.86564 -8.11112
lowerback 0.963181 1.21043 4.93041
upperback -9.85382 2.0812 1.19736
thorax -10.9451 0.636116 -1.67683
lowerneck -0.0869837 -12.715 -12.1536
upperneck 10.8414 -18.9021 16.3116
head 6.01269 -9.12433 5.71097
rclavicle -1.23246e-014 1.94809e-014
rhumerus -42.5846 -8.48548 -83.9939
rradius 24.1547
rwrist 37.8808
rhand 6.53374 -32.9288
rfingers 7.12502
rthumb 31.8318 -60.1684
lclavicle -1.23246e-014 1.94809e-014
lhumerus -42.3704 16.5118 77.2684
lradius 20.8731
lwrist -26.241
lhand -17.6112 -7.82466
lfingers 7.12502
lthumb 8.64555 21.9783
rfemur -3.59782 24.3665 25.5069
rtibia 1.74908
rfoot -9.21522 -23.8036
rtoes 0.924069
lfemur 5.66005 -42.993 -14.6326
ltibia -4.6105
lfoot -20.8379 51.697
ltoes 12.1074
52
root -0.353922 17.4889 7.59972 8.84565 -2.89485 -8.11735
lowerback 0.963839 1.21908 4.91745
upperback -9.84483 2.09278 1.21008
thorax -10.9351 0.644003 -1.65708
lowerneck -0.0855276 -12.7639 -12.0309
upperneck 10.7169 -18.932 16.1628
head 5.95127 -9.14398 5.64443
rclavicle 1.18277e-014 -2.78299e-015
rhumerus -42.6001 -8.56792 -83.9249
rradius 24.1425
rwrist 38.0034
rhand 6.44455 -32.9233
rfingers 7.12502
rthumb 31.7468 -60.1797
lclavicle 1.18277e-014 -2.78299e-015
lhumerus -42.3925 16.5049 77.3137
lradius 20.9335
lwrist -26.1965
lhand -17.5957 -7.69681
lfingers 7.12502
lthumb 8.66048 22.1055
rfemur -3.60501 24.4011 25.5118
rtibia 1.77711
rfoot -9.29054 -23.7841
rtoes 1.26557
lfemur 5.69169 -43.0073 -14.6457
ltibia -4.62357
lfoot -20.8875 51.709
ltoes 12.1899
53
root -0.354241 17.4886 7.59895 8.84402 -2.93075 -8.11535
lowerback 0.978461 1.22594 4.89285
upperback -9.83966 2.10173 1.21725
thorax -10.9382 0.650937 -1.63695
lowerneck -0.169723 -12.7619 -12.2259
upperneck 10.8372 -18.9639 16.35
head 6.0461 -9.15079 5.71921
rclavicle 5.86415e-015 -5.96354e-015
rhumerus -42.6107 -8.59878 -83.901
rradius 24.1251
rwrist 38.0492
rhand 6.33573 -32.842
rfingers 7.12502
rthumb 31.6432 -60.1189
lclavicle 5.86415e-015 -5.96354e-015
lhumerus -42.4256 16.4039 77.4079
lradius 21.0426
lwrist -26.0226
lhand -17.5039 -7.53736
lfingers 7.12502
lthumb 8.74914 22.2613
rfemur -3.61388 24.3883 25.5068
rtibia 1.79701
rfoot -9.26869 -23.7235
rtoes 1.05568
lfemur 5.65992 -42.8221 -14.6143
ltibia -4.62296
lfoot -20.7531 51.5753
ltoes 12.0264
54
root -0.353821 17.4888 7.59773 8.84041 -2.93765 -8.11087
lowerback 1.02224 1.22799 4.8911
upperback -9.84394 2.10752 1.21664
thorax -10.9694 0.65299 -1.63838
lowerneck -0.184736 -12.7749 -12.2821
upperneck 10.8224 -18.986 16.4075
head 6.05891 -9.16067 5.74142
rclavicle 5.36719e-015 -2.74323e-014
rhumerus -42.6459 -8.54927 -83.937
rradius 24.1468
rwrist 37.9754
rhand 6.29863 -32.7746
rfingers 7.12502
rthumb 31.6078 -60.0584
lclavicle 5.36719e-015 -2.74323e-014
lhumerus -42.4454 16.1768 77.5865
lradius 21.1479
lwrist -25.6873
lhand -17.4729 -7.35836
lfingers 7.12502
lthumb 8.77903 22.4391
rfemur -3.62774 24.3263 25.4946
rtibia 1.80014
rfoot -9.1947 -23.6645
rtoes 0.672751
lfemur 5.5806 -42.6066 -14.5481
ltibia -4.60836
lfoot -20.6277 51.3866
ltoes 11.9832
55
root -0.353164 17.4893 7.59707 8.85418 -2.94773 -8.12342
lowerback 1.03039 1.23123 4.91191
upperback -9.8511 2.11414 1.21588
thorax -10.9818 0.653861 -1.65167
lowerneck -0.180877 -12.8035 -12.2242
upperneck 10.7712 -19.0116 16.3505
head 6.03474 -9.1749 5.71272
rclavicle -6.06293e-015 1.23246e-014
rhumerus -42.6802 -8.48955 -83.9937
rradius 24.1934
rwrist 37.8928
rhand 6.29075 -32.7691
rfingers 7.12502
rthumb 31.6003 -60.0544
lclavicle -6.06293e-015 1.23246e-014
lhumerus -42.4777 15.949 77.7672
lradius 21.2521
lwrist -25.3252
lhand -17.5742 -7.17255
lfingers 7.12502
lthumb 8.68126 22.6289
rfemur -3.65949 24.3287 25.4939
rtibia 1.80012
rfoot -9.18511 -23.6593
rtoes 0.663233
lfemur 5.56819 -42.6484 -14.5271
ltibia -4.60538
lfoot -20.6987 51.4131
ltoes 12.1397
